<svg width="201" height="27" viewBox="0 0 201 27" fill="none" xmlns="http://www.w3.org/2000/svg">
<mask id="mask0_2349_387" style="mask-type:alpha" maskUnits="userSpaceOnUse" x="0" y="0" width="24" height="27">
<rect y="0.88916" width="24" height="26" fill="#D9D9D9"/>
</mask>
<g mask="url(#mask0_2349_387)">
<path d="M8.5 24.7225V23.0975L10.5 21.4725V15.5141L2 18.2225V16.0558L10.5 10.6391V4.68082C10.5 4.22943 10.6458 3.84575 10.9375 3.52977C11.2292 3.2138 11.5833 3.05582 12 3.05582C12.4167 3.05582 12.7708 3.2138 13.0625 3.52977C13.3542 3.84575 13.5 4.22943 13.5 4.68082V10.6391L22 16.0558V18.2225L13.5 15.5141V21.4725L15.5 23.0975V24.7225L12 23.6391L8.5 24.7225Z" fill="#4375FB"/>
</g>
<path d="M40.3 20.8892L39.02 17.6292H32.5L31.22 20.8892H29.4L34.74 7.28916H36.86L42.22 20.8892H40.3ZM35.36 10.2692L33.06 16.1492H38.46L36.16 10.2692L35.76 9.06916L35.36 10.2692ZM44.0133 8.84916V6.48916H45.7733V8.84916H44.0133ZM44.0133 20.8892V10.2692H45.7733V20.8892H44.0133ZM48.5641 20.8892V10.2692H50.3241V11.9092C51.0441 10.6092 52.1841 10.0092 53.4641 10.0092C53.8841 10.0092 54.2641 10.1092 54.4641 10.2692V11.8492C54.1641 11.7492 53.7841 11.7092 53.3641 11.7092C51.2441 11.7092 50.3241 13.0292 50.3241 14.9492V20.8892H48.5641ZM57.805 25.2892H56.045V10.2692H57.805V11.5892C58.505 10.5892 59.525 10.0092 60.785 10.0092C63.605 10.0092 65.305 12.0892 65.305 15.5492C65.305 19.1492 63.565 21.1292 60.785 21.1292C59.525 21.1292 58.505 20.6092 57.805 19.6292V25.2892ZM60.665 11.5292C58.805 11.5292 57.805 12.9492 57.805 15.5492C57.805 18.1292 58.845 19.6092 60.665 19.6092C62.505 19.6092 63.505 18.1692 63.505 15.5492C63.505 12.9892 62.465 11.5292 60.665 11.5292ZM71.888 21.1292C68.848 21.1292 67.028 19.0492 67.028 15.5892C67.028 11.9892 68.908 10.0092 71.888 10.0092C74.928 10.0092 76.748 12.1292 76.748 15.5892C76.748 19.1692 74.868 21.1292 71.888 21.1292ZM71.888 19.6092C73.868 19.6092 74.948 18.1892 74.948 15.5892C74.948 13.0092 73.848 11.5292 71.888 11.5292C69.908 11.5292 68.828 12.9692 68.828 15.5892C68.828 18.1492 69.928 19.6092 71.888 19.6092ZM79.0133 20.8892V10.2692H80.7733V11.9092C81.4933 10.6092 82.6333 10.0092 83.9133 10.0092C84.3333 10.0092 84.7133 10.1092 84.9133 10.2692V11.8492C84.6133 11.7492 84.2333 11.7092 83.8133 11.7092C81.6933 11.7092 80.7733 13.0292 80.7733 14.9492V20.8892H79.0133ZM86.7142 17.8292V11.6692H85.2342V10.2692H86.7142V7.82916H88.4742V10.2692H90.8142V11.6692H88.4742V17.8292C88.4742 19.1092 88.8542 19.7092 90.4142 19.7092H90.7742V20.9692C90.5742 21.0692 90.1342 21.1292 89.6342 21.1292C87.6542 21.1292 86.7142 20.0692 86.7142 17.8292Z" fill="#4374FB"/>
</svg>
