<svg width="273" height="37" viewBox="0 0 273 37" fill="none" xmlns="http://www.w3.org/2000/svg">
<path d="M1.464 25V8.68H8.136C11.952 8.68 14.304 10.6 14.304 13.624C14.304 15.424 13.56 16.672 12.264 17.44C13.008 17.992 13.464 18.808 13.752 20.008L14.976 25H10.968L10.056 20.728C9.744 19.264 9.24 18.952 7.848 18.952H5.304V25H1.464ZM8.064 11.728H5.304V15.976H7.968C9.576 15.976 10.344 15.112 10.344 13.84C10.344 12.568 9.552 11.728 8.064 11.728ZM19.5225 15.664C19.5225 18.208 27.5145 15.976 27.5145 21.088C27.5145 23.632 25.1625 25.384 21.8025 25.384C18.5385 25.384 16.1865 23.944 15.7065 20.752H19.3785C19.5465 21.952 20.5305 22.6 21.8985 22.6C23.1945 22.6 23.8425 22.096 23.8425 21.304C23.8425 18.808 16.0185 21.04 16.0185 15.856C16.0185 13.696 17.7705 11.68 21.2265 11.68C24.3225 11.68 26.6745 13.096 27.0345 16.36H23.3865C23.1705 15.04 22.4025 14.488 21.1065 14.488C20.1465 14.488 19.5225 14.968 19.5225 15.664ZM32.7332 25.024V24.112C32.7332 17.224 40.7012 17.488 40.7012 14.152C40.7012 12.88 39.9572 12.16 38.7092 12.16C37.2932 12.16 36.5732 12.928 36.3572 14.224H32.6612C33.0692 11.104 35.3252 9.184 38.7332 9.184C42.4292 9.184 44.3732 11.416 44.3732 14.104C44.3732 18.52 38.1812 19.168 36.6692 22.216H44.3492V25.024H32.7332ZM51.9373 25.384C47.9773 25.384 45.6733 22.36 45.6733 17.296C45.6733 12.16 48.0013 9.184 51.9373 9.184C55.8733 9.184 58.2013 12.208 58.2013 17.296C58.2013 22.432 55.8493 25.384 51.9373 25.384ZM51.9373 22.336C53.5453 22.336 54.4333 20.56 54.4333 17.296C54.4333 14.032 53.5453 12.232 51.9373 12.232C50.3053 12.232 49.4173 14.008 49.4173 17.296C49.4173 20.512 50.3293 22.336 51.9373 22.336ZM59.5254 25V21.136H63.3654V23.224C63.3654 25.744 62.8854 27.304 61.7334 29.2H59.8374C60.5094 27.76 61.0134 26.464 61.0134 25H59.5254ZM70.9461 25.384C66.9861 25.384 64.6821 22.36 64.6821 17.296C64.6821 12.16 67.0101 9.184 70.9461 9.184C74.8821 9.184 77.2101 12.208 77.2101 17.296C77.2101 22.432 74.8581 25.384 70.9461 25.384ZM70.9461 22.336C72.5541 22.336 73.4421 20.56 73.4421 17.296C73.4421 14.032 72.5541 12.232 70.9461 12.232C69.3141 12.232 68.4261 14.008 68.4261 17.296C68.4261 20.512 69.3381 22.336 70.9461 22.336ZM84.2942 25.384C80.3342 25.384 78.0302 22.36 78.0302 17.296C78.0302 12.16 80.3582 9.184 84.2942 9.184C88.2302 9.184 90.5582 12.208 90.5582 17.296C90.5582 22.432 88.2062 25.384 84.2942 25.384ZM84.2942 22.336C85.9022 22.336 86.7902 20.56 86.7902 17.296C86.7902 14.032 85.9022 12.232 84.2942 12.232C82.6622 12.232 81.7742 14.008 81.7742 17.296C81.7742 20.512 82.6862 22.336 84.2942 22.336ZM91.8823 25V21.136H95.7223V23.224C95.7223 25.744 95.2423 27.304 94.0903 29.2H92.1943C92.8663 27.76 93.3703 26.464 93.3703 25H91.8823ZM103.303 25.384C99.3429 25.384 97.0389 22.36 97.0389 17.296C97.0389 12.16 99.3669 9.184 103.303 9.184C107.239 9.184 109.567 12.208 109.567 17.296C109.567 22.432 107.215 25.384 103.303 25.384ZM103.303 22.336C104.911 22.336 105.799 20.56 105.799 17.296C105.799 14.032 104.911 12.232 103.303 12.232C101.671 12.232 100.783 14.008 100.783 17.296C100.783 20.512 101.695 22.336 103.303 22.336ZM116.651 25.384C112.691 25.384 110.387 22.36 110.387 17.296C110.387 12.16 112.715 9.184 116.651 9.184C120.587 9.184 122.915 12.208 122.915 17.296C122.915 22.432 120.563 25.384 116.651 25.384ZM116.651 22.336C118.259 22.336 119.147 20.56 119.147 17.296C119.147 14.032 118.259 12.232 116.651 12.232C115.019 12.232 114.131 14.008 114.131 17.296C114.131 20.512 115.043 22.336 116.651 22.336ZM129.999 25.384C126.039 25.384 123.735 22.36 123.735 17.296C123.735 12.16 126.063 9.184 129.999 9.184C133.935 9.184 136.263 12.208 136.263 17.296C136.263 22.432 133.911 25.384 129.999 25.384ZM129.999 22.336C131.607 22.336 132.495 20.56 132.495 17.296C132.495 14.032 131.607 12.232 129.999 12.232C128.367 12.232 127.479 14.008 127.479 17.296C127.479 20.512 128.391 22.336 129.999 22.336Z" fill="#4375FB"/>
<path d="M189.17 27V16.8H192.845C194.99 16.8 196.355 17.91 196.355 19.68C196.355 20.85 195.785 21.675 194.825 22.11C195.485 22.41 195.83 22.965 196.085 23.97L196.85 27H195.395L194.75 24.24C194.45 22.965 193.94 22.725 192.71 22.725H190.55V27H189.17ZM192.815 17.925H190.55V21.6H192.785C194.135 21.6 194.93 20.88 194.93 19.755C194.93 18.63 194.135 17.925 192.815 17.925ZM199.056 21.075C199.056 23.295 204.231 21.465 204.231 24.75C204.231 26.235 202.911 27.18 201.036 27.18C199.146 27.18 197.826 26.28 197.526 24.405H198.846C199.026 25.515 199.851 26.13 201.081 26.13C202.281 26.13 202.911 25.59 202.911 24.84C202.911 22.665 197.796 24.465 197.796 21.165C197.796 19.95 198.741 18.84 200.691 18.84C202.416 18.84 203.691 19.65 203.946 21.63H202.626C202.431 20.385 201.741 19.92 200.616 19.92C199.626 19.92 199.056 20.415 199.056 21.075ZM215.284 23.895C215.284 25.95 213.784 27.18 211.744 27.18C211.729 27.18 211.729 27.18 211.714 27.18H211.699C209.419 27.165 207.859 25.635 207.859 22.185C207.859 18.96 209.299 17.175 211.729 17.175C213.529 17.175 214.789 18.21 215.254 20.07H213.904C213.559 18.915 212.764 18.315 211.684 18.315C210.004 18.315 209.089 19.68 209.089 22.14C209.644 21.195 210.649 20.67 211.834 20.67C213.889 20.67 215.284 21.87 215.284 23.895ZM211.714 26.04C213.049 26.04 213.934 25.29 213.934 23.94C213.934 22.605 213.019 21.81 211.714 21.81C210.364 21.81 209.479 22.59 209.479 23.955C209.479 25.26 210.379 26.04 211.714 26.04ZM223.536 23.79C223.536 25.77 222.306 27.18 219.951 27.18C217.791 27.18 216.501 26.1 216.246 24.285H217.566C217.731 25.365 218.511 26.04 219.936 26.04C221.451 26.04 222.216 25.2 222.216 23.805C222.216 22.68 221.676 21.51 219.936 21.51C218.796 21.51 218.166 21.99 217.806 22.53L216.621 22.41L216.921 17.355H223.086V18.405H217.971L217.806 21.135C218.361 20.685 219.051 20.37 220.041 20.37C222.591 20.37 223.536 21.99 223.536 23.79ZM224.739 27V25.38H226.359V27H224.739ZM231.272 27.18C228.887 27.18 227.507 25.32 227.507 22.185C227.507 18.96 228.917 17.175 231.272 17.175C233.642 17.175 235.022 19.035 235.022 22.185C235.022 25.41 233.612 27.18 231.272 27.18ZM231.272 26.04C232.817 26.04 233.672 24.66 233.672 22.185C233.672 19.725 232.802 18.315 231.272 18.315C229.712 18.315 228.857 19.68 228.857 22.185C228.857 24.615 229.727 26.04 231.272 26.04ZM239.615 27.18C237.23 27.18 235.85 25.32 235.85 22.185C235.85 18.96 237.26 17.175 239.615 17.175C241.985 17.175 243.365 19.035 243.365 22.185C243.365 25.41 241.955 27.18 239.615 27.18ZM239.615 26.04C241.16 26.04 242.015 24.66 242.015 22.185C242.015 19.725 241.145 18.315 239.615 18.315C238.055 18.315 237.2 19.68 237.2 22.185C237.2 24.615 238.07 26.04 239.615 26.04ZM244.537 27V25.38H246.157V26.25C246.157 27.645 245.932 28.5 245.407 29.475H244.657C245.002 28.575 245.197 27.93 245.197 27H244.537ZM251.07 27.18C248.685 27.18 247.305 25.32 247.305 22.185C247.305 18.96 248.715 17.175 251.07 17.175C253.44 17.175 254.82 19.035 254.82 22.185C254.82 25.41 253.41 27.18 251.07 27.18ZM251.07 26.04C252.615 26.04 253.47 24.66 253.47 22.185C253.47 19.725 252.6 18.315 251.07 18.315C249.51 18.315 248.655 19.68 248.655 22.185C248.655 24.615 249.525 26.04 251.07 26.04ZM259.413 27.18C257.028 27.18 255.648 25.32 255.648 22.185C255.648 18.96 257.058 17.175 259.413 17.175C261.783 17.175 263.163 19.035 263.163 22.185C263.163 25.41 261.753 27.18 259.413 27.18ZM259.413 26.04C260.958 26.04 261.813 24.66 261.813 22.185C261.813 19.725 260.943 18.315 259.413 18.315C257.853 18.315 256.998 19.68 256.998 22.185C256.998 24.615 257.868 26.04 259.413 26.04ZM267.755 27.18C265.37 27.18 263.99 25.32 263.99 22.185C263.99 18.96 265.4 17.175 267.755 17.175C270.125 17.175 271.505 19.035 271.505 22.185C271.505 25.41 270.095 27.18 267.755 27.18ZM267.755 26.04C269.3 26.04 270.155 24.66 270.155 22.185C270.155 19.725 269.285 18.315 267.755 18.315C266.195 18.315 265.34 19.68 265.34 22.185C265.34 24.615 266.21 26.04 267.755 26.04Z" fill="black" fill-opacity="0.3"/>
<rect y="32" width="273" height="5" fill="#E2E2E2"/>
<rect y="32" width="94" height="5" fill="#4375FB"/>
</svg>
