<svg width="351" height="16" viewBox="0 0 351 16" fill="none" xmlns="http://www.w3.org/2000/svg">
<rect width="79" height="16" fill="black" fill-opacity="0.2"/>
<g opacity="0.5">
<mask id="mask0_1_450" style="mask-type:alpha" maskUnits="userSpaceOnUse" x="5" y="0" width="16" height="16">
<rect x="5" width="16" height="16" fill="#D9D9D9"/>
</mask>
<g mask="url(#mask0_1_450)">
<path d="M12.0333 12.1333L15.4833 8.00001H12.8166L13.3 4.21668L10.2166 8.66668H12.5333L12.0333 12.1333ZM10.3333 14.6667L11 10H7.66663L13.6666 1.33334H15L14.3333 6.66668H18.3333L11.6666 14.6667H10.3333Z" fill="#1C1B1F"/>
</g>
</g>
<path d="M31.77 11.5L31.06 9.72H27.62L26.91 11.5H26.24L28.96 4.7H29.75L32.48 11.5H31.77ZM29.16 5.89L27.84 9.17H30.84L29.53 5.89L29.34 5.37L29.16 5.89ZM35.2325 11.61C33.8625 11.61 33.0425 10.58 33.0425 8.86C33.0425 7.07 33.8825 6.1 35.2325 6.1C35.9425 6.1 36.4925 6.42 36.8425 7.03V4.3H37.4925V11.5H36.8425V10.65C36.4925 11.26 35.9425 11.61 35.2325 11.61ZM35.2725 11.05C36.2925 11.05 36.8425 10.27 36.8425 8.86C36.8425 7.47 36.2725 6.66 35.2725 6.66C34.2625 6.66 33.7025 7.44 33.7025 8.86C33.7025 10.25 34.2825 11.05 35.2725 11.05ZM42.4656 9.37V6.21H43.1156V11.5H42.4656V10.6C42.1156 11.26 41.5056 11.61 40.7656 11.61C39.6656 11.61 39.0356 10.95 39.0356 9.75V6.21H39.6856V9.62C39.6856 10.47 40.0656 11.05 40.9456 11.05C41.9056 11.05 42.4656 10.17 42.4656 9.37ZM44.6509 11.5V4.3H45.3009V11.5H44.6509ZM46.9384 10.05V6.73H46.1384V6.21H46.9384V4.99H47.5884V6.21H48.7684V6.73H47.5884V10.05C47.5884 10.75 47.7884 11.06 48.5984 11.06H48.7584V11.53C48.6784 11.56 48.4984 11.58 48.3184 11.58C47.3584 11.58 46.9384 11.11 46.9384 10.05ZM51.7505 11.5V6.21H52.4005V7.18C52.7505 6.46 53.3405 6.1 54.0305 6.1C54.2305 6.1 54.4105 6.14 54.5105 6.21V6.8C54.3705 6.75 54.1805 6.72 53.9905 6.72C52.9105 6.72 52.4005 7.52 52.4005 8.46V11.5H51.7505ZM55.4028 5.44V4.3H56.0528V5.44H55.4028ZM55.4028 11.5V6.21H56.0528V11.5H55.4028ZM59.4903 11.61C58.1203 11.61 57.3003 10.58 57.3003 8.86C57.3003 7.07 58.1403 6.1 59.4903 6.1C60.2003 6.1 60.7503 6.42 61.1003 7.03V4.3H61.7503V11.5H61.1003V10.65C60.7503 11.26 60.2003 11.61 59.4903 11.61ZM59.5303 11.05C60.5503 11.05 61.1003 10.27 61.1003 8.86C61.1003 7.47 60.5303 6.66 59.5303 6.66C58.5203 6.66 57.9603 7.44 57.9603 8.86C57.9603 10.25 58.5403 11.05 59.5303 11.05ZM67.7034 9.78C67.4134 11.02 66.5534 11.61 65.3934 11.61C63.8934 11.61 63.0034 10.58 63.0034 8.86C63.0034 7.07 63.9034 6.1 65.3434 6.1C66.8034 6.1 67.6734 7.11 67.6734 8.78V8.96H63.6634C63.6934 10.29 64.3234 11.05 65.3934 11.05C66.2234 11.05 66.8234 10.62 67.0334 9.78H67.7034ZM65.3434 6.66C64.3634 6.66 63.7834 7.29 63.6834 8.46H67.0034C66.9034 7.32 66.3134 6.66 65.3434 6.66ZM69.3673 7.55C69.3673 9.2 72.8573 7.82 72.8573 10.02C72.8573 11.01 72.0073 11.61 70.8273 11.61C69.5973 11.61 68.7573 11.01 68.5573 9.78H69.2073C69.3373 10.63 69.9373 11.09 70.8473 11.09C71.7373 11.09 72.2073 10.67 72.2073 10.07C72.2073 8.42 68.7473 9.78 68.7473 7.6C68.7473 6.8 69.3473 6.1 70.5973 6.1C71.6973 6.1 72.5073 6.64 72.6673 7.93H72.0173C71.8873 7 71.3673 6.63 70.5573 6.63C69.7973 6.63 69.3673 7.02 69.3673 7.55Z" fill="black" fill-opacity="0.5"/>
<rect width="88" height="16" transform="translate(89)" fill="black" fill-opacity="0.2"/>
<g opacity="0.5">
<mask id="mask1_1_450" style="mask-type:alpha" maskUnits="userSpaceOnUse" x="94" y="0" width="16" height="16">
<rect x="94" width="16" height="16" fill="#D9D9D9"/>
</mask>
<g mask="url(#mask1_1_450)">
<path d="M102 14.3333C100.522 14.3333 99.2638 13.8222 98.225 12.8C97.1861 11.7777 96.6666 10.5333 96.6666 9.06663C96.6666 8.36663 96.8027 7.69718 97.075 7.05829C97.3472 6.4194 97.7333 5.85552 98.2333 5.36663L102 1.66663L105.767 5.36663C106.267 5.85552 106.653 6.4194 106.925 7.05829C107.197 7.69718 107.333 8.36663 107.333 9.06663C107.333 10.5333 106.814 11.7777 105.775 12.8C104.736 13.8222 103.478 14.3333 102 14.3333ZM102 13C103.111 13 104.056 12.6194 104.833 11.8583C105.611 11.0972 106 10.1666 106 9.06663C106 8.5444 105.9 8.04718 105.7 7.57496C105.5 7.10274 105.211 6.68885 104.833 6.33329L102 3.53329L99.1666 6.33329C98.7888 6.68885 98.5 7.10274 98.3 7.57496C98.1 8.04718 98 8.5444 98 9.06663C98 10.1666 98.3888 11.0972 99.1666 11.8583C99.9444 12.6194 100.889 13 102 13Z" fill="#1C1B1F"/>
</g>
</g>
<path d="M115.85 11.5V4.7H120.36V5.25H116.52V7.87H120V8.42H116.52V11.5H115.85ZM121.789 7.93H121.139C121.309 6.78 122.029 6.1 123.309 6.1C124.669 6.1 125.319 6.9 125.319 8.14V10.26C125.319 10.84 125.369 11.22 125.519 11.5H124.829C124.699 11.25 124.669 10.85 124.669 10.48C124.219 11.27 123.429 11.61 122.759 11.61C121.669 11.61 120.959 11.09 120.959 10.11C120.959 9.39 121.349 8.91 122.109 8.66C122.839 8.42 123.579 8.35 124.669 8.35V8.17C124.669 7.2 124.239 6.66 123.249 6.66C122.369 6.66 121.909 7.15 121.789 7.93ZM121.619 10.09C121.619 10.69 122.089 11.05 122.819 11.05C123.859 11.05 124.669 10.19 124.669 9.21V8.84C122.159 8.85 121.619 9.37 121.619 10.09ZM126.893 11.5V6.21H127.543V7.06C127.873 6.43 128.433 6.1 129.123 6.1C129.893 6.1 130.413 6.47 130.633 7.15C130.963 6.47 131.553 6.1 132.283 6.1C133.333 6.1 133.943 6.77 133.943 7.96V11.5H133.293V8.1C133.293 7.24 132.943 6.65 132.143 6.65C131.263 6.65 130.743 7.54 130.743 8.34V11.5H130.093V8.1C130.093 7.24 129.743 6.65 128.943 6.65C128.063 6.65 127.543 7.54 127.543 8.34V11.5H126.893ZM135.487 5.44V4.3H136.137V5.44H135.487ZM135.487 11.5V6.21H136.137V11.5H135.487ZM137.674 11.5V4.3H138.324V11.5H137.674ZM139.942 13.79C139.792 13.79 139.622 13.75 139.532 13.73V13.23H139.762C140.432 13.23 140.592 13.12 141.132 11.86L141.342 11.36L139.182 6.21H139.892L141.422 9.95L141.682 10.68L141.942 9.95L143.432 6.21H144.102L141.642 12.21C141.112 13.5 140.822 13.79 139.942 13.79ZM147.1 11.5V4.7H149.42C150.8 4.7 151.68 5.42 151.68 6.57C151.68 7.37 151.26 7.94 150.57 8.21C151.07 8.38 151.33 8.76 151.52 9.49L152.03 11.5H151.32L150.87 9.64C150.64 8.69 150.26 8.52 149.35 8.52H147.77V11.5H147.1ZM149.41 5.25H147.77V7.96H149.4C150.38 7.96 150.99 7.44 150.99 6.6C150.99 5.77 150.38 5.25 149.41 5.25ZM153.182 5.44V4.3H153.832V5.44H153.182ZM153.182 11.5V6.21H153.832V11.5H153.182ZM157.27 11.61C155.9 11.61 155.08 10.58 155.08 8.86C155.08 7.07 155.92 6.1 157.27 6.1C157.98 6.1 158.53 6.42 158.88 7.03V4.3H159.53V11.5H158.88V10.65C158.53 11.26 157.98 11.61 157.27 11.61ZM157.31 11.05C158.33 11.05 158.88 10.27 158.88 8.86C158.88 7.47 158.31 6.66 157.31 6.66C156.3 6.66 155.74 7.44 155.74 8.86C155.74 10.25 156.32 11.05 157.31 11.05ZM165.483 9.78C165.193 11.02 164.333 11.61 163.173 11.61C161.673 11.61 160.783 10.58 160.783 8.86C160.783 7.07 161.683 6.1 163.123 6.1C164.583 6.1 165.453 7.11 165.453 8.78V8.96H161.443C161.473 10.29 162.103 11.05 163.173 11.05C164.003 11.05 164.603 10.62 164.813 9.78H165.483ZM163.123 6.66C162.143 6.66 161.563 7.29 161.463 8.46H164.783C164.683 7.32 164.093 6.66 163.123 6.66ZM167.147 7.55C167.147 9.2 170.637 7.82 170.637 10.02C170.637 11.01 169.787 11.61 168.607 11.61C167.377 11.61 166.537 11.01 166.337 9.78H166.987C167.117 10.63 167.717 11.09 168.627 11.09C169.517 11.09 169.987 10.67 169.987 10.07C169.987 8.42 166.527 9.78 166.527 7.6C166.527 6.8 167.127 6.1 168.377 6.1C169.477 6.1 170.287 6.64 170.447 7.93H169.797C169.667 7 169.147 6.63 168.337 6.63C167.577 6.63 167.147 7.02 167.147 7.55Z" fill="black" fill-opacity="0.5"/>
<rect width="85" height="16" transform="translate(187)" fill="black" fill-opacity="0.2"/>
<g opacity="0.5">
<mask id="mask2_1_450" style="mask-type:alpha" maskUnits="userSpaceOnUse" x="192" y="0" width="16" height="16">
<rect x="192" width="16" height="16" fill="#D9D9D9"/>
</mask>
<g mask="url(#mask2_1_450)">
<path d="M194.667 6C194.478 6 194.319 5.93611 194.192 5.80834C194.064 5.68056 194 5.52222 194 5.33334C194 5.14445 194.064 4.98611 194.192 4.85834C194.319 4.73056 194.478 4.66667 194.667 4.66667H196.667C197.033 4.66667 197.347 4.79722 197.608 5.05834C197.869 5.31945 198 5.63334 198 6H194.667ZM196 12C196.556 12 197.028 11.8056 197.417 11.4167C197.806 11.0278 198 10.5556 198 10C198 9.44445 197.806 8.97222 197.417 8.58334C197.028 8.19445 196.556 8 196 8C195.444 8 194.972 8.19445 194.583 8.58334C194.194 8.97222 194 9.44445 194 10C194 10.5556 194.194 11.0278 194.583 11.4167C194.972 11.8056 195.444 12 196 12ZM205 12C205.278 12 205.514 11.9028 205.708 11.7083C205.903 11.5139 206 11.2778 206 11C206 10.7222 205.903 10.4861 205.708 10.2917C205.514 10.0972 205.278 10 205 10C204.722 10 204.486 10.0972 204.292 10.2917C204.097 10.4861 204 10.7222 204 11C204 11.2778 204.097 11.5139 204.292 11.7083C204.486 11.9028 204.722 12 205 12ZM196 11C195.722 11 195.486 10.9028 195.292 10.7083C195.097 10.5139 195 10.2778 195 10C195 9.72222 195.097 9.48611 195.292 9.29167C195.486 9.09722 195.722 9 196 9C196.278 9 196.514 9.09722 196.708 9.29167C196.903 9.48611 197 9.72222 197 10C197 10.2778 196.903 10.5139 196.708 10.7083C196.514 10.9028 196.278 11 196 11ZM205.333 8.68334C205.622 8.73889 205.861 8.81389 206.05 8.90834C206.239 9.00278 206.444 9.15556 206.667 9.36667V5.33334C206.667 4.96667 206.536 4.65278 206.275 4.39167C206.014 4.13056 205.7 4 205.333 4H201.133L200.433 3.26667L201.367 2.33334L200.9 1.86667L198.533 4.23334L199.033 4.7L199.967 3.76667L200.667 4.46667V6C200.667 6.36667 200.536 6.68056 200.275 6.94167C200.014 7.20278 199.7 7.33334 199.333 7.33334H197.983C198.239 7.52222 198.444 7.71667 198.6 7.91667C198.756 8.11667 198.911 8.36667 199.067 8.66667H199.333C200.067 8.66667 200.694 8.40556 201.217 7.88334C201.739 7.36111 202 6.73334 202 6V5.33334H205.333V8.68334ZM202.683 10.6667C202.75 10.3667 202.831 10.125 202.925 9.94167C203.019 9.75834 203.167 9.55556 203.367 9.33334H199.267C199.311 9.58889 199.333 9.81111 199.333 10C199.333 10.1889 199.311 10.4111 199.267 10.6667H202.683ZM205 13.3333C204.356 13.3333 203.806 13.1056 203.35 12.65C202.894 12.1944 202.667 11.6444 202.667 11C202.667 10.3556 202.894 9.80556 203.35 9.35C203.806 8.89445 204.356 8.66667 205 8.66667C205.644 8.66667 206.194 8.89445 206.65 9.35C207.106 9.80556 207.333 10.3556 207.333 11C207.333 11.6444 207.106 12.1944 206.65 12.65C206.194 13.1056 205.644 13.3333 205 13.3333ZM196 13.3333C195.078 13.3333 194.292 13.0083 193.642 12.3583C192.992 11.7083 192.667 10.9222 192.667 10C192.667 9.07778 192.992 8.29167 193.642 7.64167C194.292 6.99167 195.078 6.66667 196 6.66667C196.922 6.66667 197.708 6.99167 198.358 7.64167C199.008 8.29167 199.333 9.07778 199.333 10C199.333 10.9222 199.008 11.7083 198.358 12.3583C197.708 13.0083 196.922 13.3333 196 13.3333Z" fill="#1C1B1F"/>
</g>
</g>
<path d="M213.85 11.5V4.7H216.17C217.55 4.7 218.43 5.42 218.43 6.57C218.43 7.37 218.01 7.94 217.32 8.21C217.82 8.38 218.08 8.76 218.27 9.49L218.78 11.5H218.07L217.62 9.64C217.39 8.69 217.01 8.52 216.1 8.52H214.52V11.5H213.85ZM216.16 5.25H214.52V7.96H216.15C217.13 7.96 217.74 7.44 217.74 6.6C217.74 5.77 217.13 5.25 216.16 5.25ZM224.342 9.78C224.052 11.02 223.192 11.61 222.032 11.61C220.532 11.61 219.642 10.58 219.642 8.86C219.642 7.07 220.542 6.1 221.982 6.1C223.442 6.1 224.312 7.11 224.312 8.78V8.96H220.302C220.332 10.29 220.962 11.05 222.032 11.05C222.862 11.05 223.462 10.62 223.672 9.78H224.342ZM221.982 6.66C221.002 6.66 220.422 7.29 220.322 8.46H223.642C223.542 7.32 222.952 6.66 221.982 6.66ZM226.006 7.55C226.006 9.2 229.496 7.82 229.496 10.02C229.496 11.01 228.646 11.61 227.466 11.61C226.236 11.61 225.396 11.01 225.196 9.78H225.846C225.976 10.63 226.576 11.09 227.486 11.09C228.376 11.09 228.846 10.67 228.846 10.07C228.846 8.42 225.386 9.78 225.386 7.6C225.386 6.8 225.986 6.1 227.236 6.1C228.336 6.1 229.146 6.64 229.306 7.93H228.656C228.526 7 228.006 6.63 227.196 6.63C226.436 6.63 226.006 7.02 226.006 7.55ZM230.755 10.05V6.73H229.955V6.21H230.755V4.99H231.405V6.21H232.585V6.73H231.405V10.05C231.405 10.75 231.605 11.06 232.415 11.06H232.575V11.53C232.495 11.56 232.315 11.58 232.135 11.58C231.175 11.58 230.755 11.11 230.755 10.05ZM234.076 7.93H233.426C233.596 6.78 234.316 6.1 235.596 6.1C236.956 6.1 237.606 6.9 237.606 8.14V10.26C237.606 10.84 237.656 11.22 237.806 11.5H237.116C236.986 11.25 236.956 10.85 236.956 10.48C236.506 11.27 235.716 11.61 235.046 11.61C233.956 11.61 233.246 11.09 233.246 10.11C233.246 9.39 233.636 8.91 234.396 8.66C235.126 8.42 235.866 8.35 236.956 8.35V8.17C236.956 7.2 236.526 6.66 235.536 6.66C234.656 6.66 234.196 7.15 234.076 7.93ZM233.906 10.09C233.906 10.69 234.376 11.05 235.106 11.05C236.146 11.05 236.956 10.19 236.956 9.21V8.84C234.446 8.85 233.906 9.37 233.906 10.09ZM242.61 9.37V6.21H243.26V11.5H242.61V10.6C242.26 11.26 241.65 11.61 240.91 11.61C239.81 11.61 239.18 10.95 239.18 9.75V6.21H239.83V9.62C239.83 10.47 240.21 11.05 241.09 11.05C242.05 11.05 242.61 10.17 242.61 9.37ZM244.795 11.5V6.21H245.445V7.18C245.795 6.46 246.385 6.1 247.075 6.1C247.275 6.1 247.455 6.14 247.555 6.21V6.8C247.415 6.75 247.225 6.72 247.035 6.72C245.955 6.72 245.445 7.52 245.445 8.46V11.5H244.795ZM248.891 7.93H248.241C248.411 6.78 249.131 6.1 250.411 6.1C251.771 6.1 252.421 6.9 252.421 8.14V10.26C252.421 10.84 252.471 11.22 252.621 11.5H251.931C251.801 11.25 251.771 10.85 251.771 10.48C251.321 11.27 250.531 11.61 249.861 11.61C248.771 11.61 248.061 11.09 248.061 10.11C248.061 9.39 248.451 8.91 249.211 8.66C249.941 8.42 250.681 8.35 251.771 8.35V8.17C251.771 7.2 251.341 6.66 250.351 6.66C249.471 6.66 249.011 7.15 248.891 7.93ZM248.721 10.09C248.721 10.69 249.191 11.05 249.921 11.05C250.961 11.05 251.771 10.19 251.771 9.21V8.84C249.261 8.85 248.721 9.37 248.721 10.09ZM253.995 11.5V6.21H254.645V7.1C255.005 6.45 255.615 6.1 256.365 6.1C257.485 6.1 258.125 6.77 258.125 7.96V11.5H257.485V8.1C257.485 7.24 257.085 6.65 256.195 6.65C255.215 6.65 254.645 7.54 254.645 8.34V11.5H253.995ZM259.768 10.05V6.73H258.968V6.21H259.768V4.99H260.418V6.21H261.598V6.73H260.418V10.05C260.418 10.75 260.618 11.06 261.428 11.06H261.588V11.53C261.508 11.56 261.328 11.58 261.148 11.58C260.188 11.58 259.768 11.11 259.768 10.05ZM262.92 7.55C262.92 9.2 266.41 7.82 266.41 10.02C266.41 11.01 265.56 11.61 264.38 11.61C263.15 11.61 262.31 11.01 262.11 9.78H262.76C262.89 10.63 263.49 11.09 264.4 11.09C265.29 11.09 265.76 10.67 265.76 10.07C265.76 8.42 262.3 9.78 262.3 7.6C262.3 6.8 262.9 6.1 264.15 6.1C265.25 6.1 266.06 6.64 266.22 7.93H265.57C265.44 7 264.92 6.63 264.11 6.63C263.35 6.63 262.92 7.02 262.92 7.55Z" fill="black" fill-opacity="0.5"/>
<rect width="69" height="16" transform="translate(282)" fill="black" fill-opacity="0.2"/>
<g opacity="0.5">
<mask id="mask3_1_450" style="mask-type:alpha" maskUnits="userSpaceOnUse" x="287" y="0" width="16" height="16">
<rect x="287" width="16" height="16" fill="#D9D9D9"/>
</mask>
<g mask="url(#mask3_1_450)">
<path d="M288.333 14V4L291 2L293 3.5L295 2L297 3.5L299 2L301.667 4V14H288.333ZM289.667 12.6667H292.333V4.66667L291 3.66667L289.667 4.66667V12.6667ZM293.667 12.6667H296.333V4.66667L295 3.66667L293.667 4.66667V12.6667ZM297.667 12.6667H300.333V4.66667L299 3.66667L297.667 4.66667V12.6667Z" fill="#1C1B1F"/>
</g>
</g>
<path d="M308.85 11.5V4.7H311.06C312.55 4.7 313.5 5.51 313.5 6.81C313.5 8.14 312.54 8.93 311.07 8.93H309.52V11.5H308.85ZM311.05 5.25H309.52V8.37H311.03C312.13 8.37 312.8 7.78 312.8 6.81C312.8 5.86 312.13 5.25 311.05 5.25ZM314.698 11.5V6.21H315.348V7.18C315.698 6.46 316.288 6.1 316.978 6.1C317.178 6.1 317.358 6.14 317.458 6.21V6.8C317.318 6.75 317.128 6.72 316.938 6.72C315.858 6.72 315.348 7.52 315.348 8.46V11.5H314.698ZM322.662 9.78C322.372 11.02 321.512 11.61 320.352 11.61C318.852 11.61 317.962 10.58 317.962 8.86C317.962 7.07 318.862 6.1 320.302 6.1C321.762 6.1 322.632 7.11 322.632 8.78V8.96H318.622C318.652 10.29 319.282 11.05 320.352 11.05C321.182 11.05 321.782 10.62 321.992 9.78H322.662ZM320.302 6.66C319.322 6.66 318.742 7.29 318.642 8.46H321.962C321.862 7.32 321.272 6.66 320.302 6.66ZM323.926 11.5V6.21H324.576V7.06C324.906 6.43 325.466 6.1 326.156 6.1C326.926 6.1 327.446 6.47 327.666 7.15C327.996 6.47 328.586 6.1 329.316 6.1C330.366 6.1 330.976 6.77 330.976 7.96V11.5H330.326V8.1C330.326 7.24 329.976 6.65 329.176 6.65C328.296 6.65 327.776 7.54 327.776 8.34V11.5H327.126V8.1C327.126 7.24 326.776 6.65 325.976 6.65C325.096 6.65 324.576 7.54 324.576 8.34V11.5H323.926ZM335.95 9.37V6.21H336.6V11.5H335.95V10.6C335.6 11.26 334.99 11.61 334.25 11.61C333.15 11.61 332.52 10.95 332.52 9.75V6.21H333.17V9.62C333.17 10.47 333.55 11.05 334.43 11.05C335.39 11.05 335.95 10.17 335.95 9.37ZM338.135 11.5V6.21H338.785V7.06C339.115 6.43 339.675 6.1 340.365 6.1C341.135 6.1 341.655 6.47 341.875 7.15C342.205 6.47 342.795 6.1 343.525 6.1C344.575 6.1 345.185 6.77 345.185 7.96V11.5H344.535V8.1C344.535 7.24 344.185 6.65 343.385 6.65C342.505 6.65 341.985 7.54 341.985 8.34V11.5H341.335V8.1C341.335 7.24 340.985 6.65 340.185 6.65C339.305 6.65 338.785 7.54 338.785 8.34V11.5H338.135Z" fill="black" fill-opacity="0.5"/>
</svg>
