<svg width="201" height="27" viewBox="0 0 201 27" fill="none" xmlns="http://www.w3.org/2000/svg">
<mask id="mask0_2349_409" style="mask-type:alpha" maskUnits="userSpaceOnUse" x="0" y="0" width="24" height="27">
<rect y="0.88916" width="24" height="26" fill="#D9D9D9"/>
</mask>
<g mask="url(#mask0_2349_409)">
<path d="M18 25.8058V22.5558H15V20.3891H18V17.1391H20V20.3891H23V22.5558H20V25.8058H18ZM18 14.9725V5.22247H20V14.9725H18ZM4 22.5558V5.22247H6V22.5558H4ZM11 9.55581V5.22247H13V9.55581H11ZM11 16.0558V11.7225H13V16.0558H11ZM11 22.5558V18.2225H13V22.5558H11Z" fill="#4375FB"/>
</g>
<path d="M30.56 20.8892V7.28916H32.4V13.1292H39.52V7.28916H41.36V20.8892H39.52V14.6292H32.4V20.8892H30.56ZM44.3258 8.84916V6.48916H46.0858V8.84916H44.3258ZM44.3258 20.8892V10.2692H46.0858V20.8892H44.3258ZM52.6566 20.9692C49.9566 20.9692 48.3366 18.9092 48.3366 15.5092C48.3366 11.9492 49.9966 10.0092 52.6566 10.0092C54.0766 10.0092 55.1366 10.5092 55.8366 11.4292V10.2692H57.5966V21.2092C57.5966 24.1692 55.6966 25.5492 53.2566 25.5492C50.7566 25.5492 48.9966 24.3492 48.6166 21.9292H50.3766C50.5966 23.3292 51.6966 24.0892 53.2366 24.0892C54.7966 24.0892 55.8366 23.2492 55.8366 21.2692V19.4492C55.0966 20.4492 54.0166 20.9692 52.6566 20.9692ZM52.9766 19.4492C54.8366 19.4492 55.8366 18.0492 55.8366 15.4892C55.8366 12.9892 54.7966 11.5292 52.9766 11.5292C51.1366 11.5292 50.1366 12.9292 50.1366 15.5092C50.1366 18.0092 51.1566 19.4492 52.9766 19.4492ZM60.4195 20.8892V6.48916H62.1795V11.7092C62.8995 10.5892 64.0595 10.0092 65.4595 10.0092C67.7195 10.0092 69.0595 11.3292 69.0595 13.7892V20.8892H67.2995V14.1492C67.2995 12.5492 66.5795 11.5092 64.9795 11.5092C63.2195 11.5092 62.1795 13.0892 62.1795 14.6092V20.8892H60.4195ZM80.7719 20.8892L78.4719 12.9492L78.2319 11.7492L77.9919 12.9492L75.7119 20.8892H73.5319L70.3719 10.2692H72.2719L74.4519 18.5092L74.7119 19.5892L74.9719 18.5092L77.3919 10.2692H79.2919L81.7119 18.5092L81.9519 19.5492L82.1719 18.5092L84.3519 10.2692H86.1719L82.9919 20.8892H80.7719ZM89.3833 13.7292H87.6233C87.9633 11.3892 89.5033 10.0092 92.1033 10.0092C94.9433 10.0092 96.3233 11.6692 96.3233 14.1492V18.3292C96.3233 19.5492 96.4233 20.3092 96.7033 20.8892H94.8433C94.6433 20.4692 94.5833 19.8492 94.5633 19.2092C93.6633 20.5492 92.2233 21.1292 90.9433 21.1292C88.7433 21.1292 87.2633 20.1092 87.2633 18.0892C87.2633 16.6292 88.0633 15.5692 89.6233 15.0492C91.0633 14.5692 92.5233 14.4492 94.5633 14.4292V14.1892C94.5633 12.4692 93.7633 11.5292 91.9433 11.5292C90.4233 11.5292 89.6033 12.3692 89.3833 13.7292ZM89.0633 18.0492C89.0633 19.0292 89.8833 19.6092 91.1233 19.6092C93.0833 19.6092 94.5633 18.0692 94.5633 16.2492V15.7492C90.0433 15.7892 89.0633 16.7492 89.0633 18.0492ZM99.4933 25.5292C99.0933 25.5292 98.6733 25.4292 98.4533 25.3692V24.0092H98.9933C100.293 24.0092 100.653 23.7492 101.693 21.3692L102.053 20.5492L97.7133 10.2692H99.6133L102.493 17.2892L102.973 18.7092L103.453 17.2892L106.253 10.2692H108.053L103.093 22.2892C102.033 24.8492 101.333 25.5292 99.4933 25.5292Z" fill="#4374FB"/>
</svg>
