<svg width="226" height="28" viewBox="0 0 226 28" fill="none" xmlns="http://www.w3.org/2000/svg">
<rect x="0.5" y="0.5" width="225" height="27" fill="white"/>
<rect x="0.5" y="0.5" width="225" height="27" stroke="#4375FB"/>
<mask id="mask0_1_456" style="mask-type:alpha" maskUnits="userSpaceOnUse" x="10" y="6" width="16" height="16">
<rect x="10" y="6" width="16" height="16" fill="#D9D9D9"/>
</mask>
<g mask="url(#mask0_1_456)">
<path d="M13.5995 19.3333L12.6661 18.3999L20.3995 10.6666H15.9995V9.33328H22.6661V15.9999H21.3328V11.5999L13.5995 19.3333Z" fill="#4375FB"/>
</g>
<path d="M37.624 9.48L40.522 16.914L40.802 17.754L41.082 16.914L43.98 9.48H45.254L41.516 19H40.032L36.28 9.48H37.624ZM46.5093 10.572V8.92H47.7413V10.572H46.5093ZM46.5093 19V11.566H47.7413V19H46.5093ZM56.1208 16.578C55.7148 18.314 54.4688 19.168 52.7748 19.168C50.6188 19.168 49.3168 17.712 49.3168 15.29C49.3168 12.77 50.6188 11.384 52.7048 11.384C54.8048 11.384 56.0648 12.826 56.0648 15.192V15.5H50.5768C50.6468 17.166 51.4308 18.104 52.7748 18.104C53.8248 18.104 54.5668 17.6 54.8328 16.578H56.1208ZM52.7048 12.448C51.5148 12.448 50.8008 13.19 50.6188 14.576H54.7768C54.6088 13.204 53.8668 12.448 52.7048 12.448ZM64.0098 19L62.3998 13.442L62.2318 12.602L62.0638 13.442L60.4678 19H58.9418L56.7298 11.566H58.0598L59.5858 17.334L59.7678 18.09L59.9498 17.334L61.6438 11.566H62.9738L64.6678 17.334L64.8358 18.062L64.9898 17.334L66.5158 11.566H67.7898L65.5638 19H64.0098ZM74.7306 19.168C72.6026 19.168 71.3286 17.712 71.3286 15.29C71.3286 12.77 72.6446 11.384 74.7306 11.384C76.8586 11.384 78.1326 12.868 78.1326 15.29C78.1326 17.796 76.8166 19.168 74.7306 19.168ZM74.7306 18.104C76.1166 18.104 76.8726 17.11 76.8726 15.29C76.8726 13.484 76.1026 12.448 74.7306 12.448C73.3446 12.448 72.5886 13.456 72.5886 15.29C72.5886 17.082 73.3586 18.104 74.7306 18.104ZM80.9643 22.08H79.7323V11.566H80.9643V12.49C81.4543 11.79 82.1683 11.384 83.0503 11.384C85.0243 11.384 86.2143 12.84 86.2143 15.262C86.2143 17.782 84.9963 19.168 83.0503 19.168C82.1683 19.168 81.4543 18.804 80.9643 18.118V22.08ZM82.9663 12.448C81.6643 12.448 80.9643 13.442 80.9643 15.262C80.9643 17.068 81.6923 18.104 82.9663 18.104C84.2543 18.104 84.9543 17.096 84.9543 15.262C84.9543 13.47 84.2263 12.448 82.9663 12.448ZM89.0444 22.08H87.8124V11.566H89.0444V12.49C89.5344 11.79 90.2484 11.384 91.1304 11.384C93.1044 11.384 94.2944 12.84 94.2944 15.262C94.2944 17.782 93.0764 19.168 91.1304 19.168C90.2484 19.168 89.5344 18.804 89.0444 18.118V22.08ZM91.0464 12.448C89.7444 12.448 89.0444 13.442 89.0444 15.262C89.0444 17.068 89.7724 18.104 91.0464 18.104C92.3344 18.104 93.0344 17.096 93.0344 15.262C93.0344 13.47 92.3064 12.448 91.0464 12.448ZM98.9024 19.168C96.7744 19.168 95.5004 17.712 95.5004 15.29C95.5004 12.77 96.8164 11.384 98.9024 11.384C101.03 11.384 102.304 12.868 102.304 15.29C102.304 17.796 100.988 19.168 98.9024 19.168ZM98.9024 18.104C100.288 18.104 101.044 17.11 101.044 15.29C101.044 13.484 100.274 12.448 98.9024 12.448C97.5164 12.448 96.7604 13.456 96.7604 15.29C96.7604 17.082 97.5304 18.104 98.9024 18.104ZM103.89 19V11.566H105.122V12.714C105.626 11.804 106.424 11.384 107.32 11.384C107.614 11.384 107.88 11.454 108.02 11.566V12.672C107.81 12.602 107.544 12.574 107.25 12.574C105.766 12.574 105.122 13.498 105.122 14.842V19H103.89ZM109.281 16.858V12.546H108.245V11.566H109.281V9.858H110.513V11.566H112.151V12.546H110.513V16.858C110.513 17.754 110.779 18.174 111.871 18.174H112.123V19.056C111.983 19.126 111.675 19.168 111.325 19.168C109.939 19.168 109.281 18.426 109.281 16.858ZM118.056 15.962V11.566H119.288V19H118.056V17.992C117.552 18.776 116.768 19.168 115.802 19.168C114.248 19.168 113.324 18.258 113.324 16.536V11.566H114.556V16.284C114.556 17.404 115.046 18.118 116.138 18.118C117.342 18.118 118.056 17.026 118.056 15.962ZM121.253 19V11.566H122.485V12.574C122.989 11.79 123.801 11.384 124.781 11.384C126.363 11.384 127.301 12.308 127.301 14.03V19H126.069V14.282C126.069 13.162 125.565 12.434 124.445 12.434C123.213 12.434 122.485 13.54 122.485 14.604V19H121.253ZM129.265 10.572V8.92H130.497V10.572H129.265ZM129.265 19V11.566H130.497V19H129.265ZM132.619 16.858V12.546H131.583V11.566H132.619V9.858H133.851V11.566H135.489V12.546H133.851V16.858C133.851 17.754 134.117 18.174 135.209 18.174H135.461V19.056C135.321 19.126 135.013 19.168 134.663 19.168C133.277 19.168 132.619 18.426 132.619 16.858ZM136.998 22.248C136.718 22.248 136.424 22.178 136.27 22.136V21.184H136.648C137.558 21.184 137.81 21.002 138.538 19.336L138.79 18.762L135.752 11.566H137.082L139.098 16.48L139.434 17.474L139.77 16.48L141.73 11.566H142.99L139.518 19.98C138.776 21.772 138.286 22.248 136.998 22.248ZM149.871 19.168C147.743 19.168 146.469 17.712 146.469 15.29C146.469 12.77 147.785 11.384 149.871 11.384C151.999 11.384 153.273 12.868 153.273 15.29C153.273 17.796 151.957 19.168 149.871 19.168ZM149.871 18.104C151.257 18.104 152.013 17.11 152.013 15.29C152.013 13.484 151.243 12.448 149.871 12.448C148.485 12.448 147.729 13.456 147.729 15.29C147.729 17.082 148.499 18.104 149.871 18.104ZM154.859 19V11.566H156.091V12.574C156.595 11.79 157.407 11.384 158.387 11.384C159.969 11.384 160.907 12.308 160.907 14.03V19H159.675V14.282C159.675 13.162 159.171 12.434 158.051 12.434C156.819 12.434 156.091 13.54 156.091 14.604V19H154.859ZM166.919 22.08H165.687V11.566H166.919V12.49C167.409 11.79 168.123 11.384 169.005 11.384C170.979 11.384 172.169 12.84 172.169 15.262C172.169 17.782 170.951 19.168 169.005 19.168C168.123 19.168 167.409 18.804 166.919 18.118V22.08ZM168.921 12.448C167.619 12.448 166.919 13.442 166.919 15.262C166.919 17.068 167.647 18.104 168.921 18.104C170.209 18.104 170.909 17.096 170.909 15.262C170.909 13.47 170.181 12.448 168.921 12.448ZM176.777 19.168C174.649 19.168 173.375 17.712 173.375 15.29C173.375 12.77 174.691 11.384 176.777 11.384C178.905 11.384 180.179 12.868 180.179 15.29C180.179 17.796 178.863 19.168 176.777 19.168ZM176.777 18.104C178.163 18.104 178.919 17.11 178.919 15.29C178.919 13.484 178.149 12.448 176.777 12.448C175.391 12.448 174.635 13.456 174.635 15.29C174.635 17.082 175.405 18.104 176.777 18.104ZM181.765 19V8.92H182.997V19H181.765ZM185.287 22.248C185.007 22.248 184.713 22.178 184.559 22.136V21.184H184.937C185.847 21.184 186.099 21.002 186.827 19.336L187.079 18.762L184.041 11.566H185.371L187.387 16.48L187.723 17.474L188.059 16.48L190.019 11.566H191.279L187.807 19.98C187.065 21.772 186.575 22.248 185.287 22.248ZM194.911 19.056C193.021 19.056 191.887 17.614 191.887 15.234C191.887 12.742 193.049 11.384 194.911 11.384C195.905 11.384 196.647 11.734 197.137 12.378V11.566H198.369V19.224C198.369 21.296 197.039 22.262 195.331 22.262C193.581 22.262 192.349 21.422 192.083 19.728H193.315C193.469 20.708 194.239 21.24 195.317 21.24C196.409 21.24 197.137 20.652 197.137 19.266V17.992C196.619 18.692 195.863 19.056 194.911 19.056ZM195.135 17.992C196.437 17.992 197.137 17.012 197.137 15.22C197.137 13.47 196.409 12.448 195.135 12.448C193.847 12.448 193.147 13.428 193.147 15.234C193.147 16.984 193.861 17.992 195.135 17.992ZM203.369 19.168C201.241 19.168 199.967 17.712 199.967 15.29C199.967 12.77 201.283 11.384 203.369 11.384C205.497 11.384 206.771 12.868 206.771 15.29C206.771 17.796 205.455 19.168 203.369 19.168ZM203.369 18.104C204.755 18.104 205.511 17.11 205.511 15.29C205.511 13.484 204.741 12.448 203.369 12.448C201.983 12.448 201.227 13.456 201.227 15.29C201.227 17.082 201.997 18.104 203.369 18.104ZM208.357 19V11.566H209.589V12.574C210.093 11.79 210.905 11.384 211.885 11.384C213.467 11.384 214.405 12.308 214.405 14.03V19H213.173V14.282C213.173 13.162 212.669 12.434 211.549 12.434C210.317 12.434 209.589 13.54 209.589 14.604V19H208.357Z" fill="#4375FB"/>
<path d="M36 20.75H215.385V21.45H36V20.75Z" fill="#4375FB"/>
</svg>
