<svg width="250" height="32" viewBox="0 0 250 32" fill="none" xmlns="http://www.w3.org/2000/svg">
<rect y="23" width="30" height="2.49805" fill="black"/>
<path d="M21.9509 19V17.506H24.1469V9.91H21.9509V8.434H23.1209C24.1829 8.434 24.4709 8.182 24.4709 7.624V7.426H26.1629V17.506H28.3409V19H21.9509Z" fill="black"/>
<circle cx="9" cy="13" r="6" fill="black"/>
<path d="M6.36267 12.4174L7.52785 14.3594L12.1886 11.6406" stroke="#4374FB" stroke-width="1.5"/>
<path d="M108 16L106.75 15.2783V16.7217L108 16ZM32 16.125H32.5V15.875H32V16.125ZM33.5 16.125H34.5V15.875H33.5V16.125ZM35.5 16.125H36.5V15.875H35.5V16.125ZM37.5 16.125H38.5V15.875H37.5V16.125ZM39.5 16.125H40.5V15.875H39.5V16.125ZM41.5 16.125H42.5V15.875H41.5V16.125ZM43.5 16.125H44.5V15.875H43.5V16.125ZM45.5 16.125H46.5V15.875H45.5V16.125ZM47.5 16.125H48.5V15.875H47.5V16.125ZM49.5 16.125H50.5V15.875H49.5V16.125ZM51.5 16.125H52.5V15.875H51.5V16.125ZM53.5 16.125H54.5V15.875H53.5V16.125ZM55.5 16.125H56.5V15.875H55.5V16.125ZM57.5 16.125H58.5V15.875H57.5V16.125ZM59.5 16.125H60.5V15.875H59.5V16.125ZM61.5 16.125H62.5V15.875H61.5V16.125ZM63.5 16.125H64.5V15.875H63.5V16.125ZM65.5 16.125H66.5V15.875H65.5V16.125ZM67.5 16.125H68.5V15.875H67.5V16.125ZM69.5 16.125H70.5V15.875H69.5V16.125ZM71.5 16.125H72.5V15.875H71.5V16.125ZM73.5 16.125H74.5V15.875H73.5V16.125ZM75.5 16.125H76.5V15.875H75.5V16.125ZM77.5 16.125H78.5V15.875H77.5V16.125ZM79.5 16.125H80.5V15.875H79.5V16.125ZM81.5 16.125H82.5V15.875H81.5V16.125ZM83.5 16.125H84.5V15.875H83.5V16.125ZM85.5 16.125H86.5V15.875H85.5V16.125ZM87.5 16.125H88.5V15.875H87.5V16.125ZM89.5 16.125H90.5V15.875H89.5V16.125ZM91.5 16.125H92.5V15.875H91.5V16.125ZM93.5 16.125H94.5V15.875H93.5V16.125ZM95.5 16.125H96.5V15.875H95.5V16.125ZM97.5 16.125H98.5V15.875H97.5V16.125ZM99.5 16.125H100.5V15.875H99.5V16.125ZM101.5 16.125H102.5V15.875H101.5V16.125ZM103.5 16.125H104.5V15.875H103.5V16.125ZM105.5 16.125H106.5V15.875H105.5V16.125ZM108 16L105.5 14.5566V17.4434L108 16ZM32 16.25H32.5V15.75H32V16.25ZM33.5 16.25H34.5V15.75H33.5V16.25ZM35.5 16.25H36.5V15.75H35.5V16.25ZM37.5 16.25H38.5V15.75H37.5V16.25ZM39.5 16.25H40.5V15.75H39.5V16.25ZM41.5 16.25H42.5V15.75H41.5V16.25ZM43.5 16.25H44.5V15.75H43.5V16.25ZM45.5 16.25H46.5V15.75H45.5V16.25ZM47.5 16.25H48.5V15.75H47.5V16.25ZM49.5 16.25H50.5V15.75H49.5V16.25ZM51.5 16.25H52.5V15.75H51.5V16.25ZM53.5 16.25H54.5V15.75H53.5V16.25ZM55.5 16.25H56.5V15.75H55.5V16.25ZM57.5 16.25H58.5V15.75H57.5V16.25ZM59.5 16.25H60.5V15.75H59.5V16.25ZM61.5 16.25H62.5V15.75H61.5V16.25ZM63.5 16.25H64.5V15.75H63.5V16.25ZM65.5 16.25H66.5V15.75H65.5V16.25ZM67.5 16.25H68.5V15.75H67.5V16.25ZM69.5 16.25H70.5V15.75H69.5V16.25ZM71.5 16.25H72.5V15.75H71.5V16.25ZM73.5 16.25H74.5V15.75H73.5V16.25ZM75.5 16.25H76.5V15.75H75.5V16.25ZM77.5 16.25H78.5V15.75H77.5V16.25ZM79.5 16.25H80.5V15.75H79.5V16.25ZM81.5 16.25H82.5V15.75H81.5V16.25ZM83.5 16.25H84.5V15.75H83.5V16.25ZM85.5 16.25H86.5V15.75H85.5V16.25ZM87.5 16.25H88.5V15.75H87.5V16.25ZM89.5 16.25H90.5V15.75H89.5V16.25ZM91.5 16.25H92.5V15.75H91.5V16.25ZM93.5 16.25H94.5V15.75H93.5V16.25ZM95.5 16.25H96.5V15.75H95.5V16.25ZM97.5 16.25H98.5V15.75H97.5V16.25ZM99.5 16.25H100.5V15.75H99.5V16.25ZM101.5 16.25H102.5V15.75H101.5V16.25ZM103.5 16.25H104.5V15.75H103.5V16.25ZM105.5 16.25H106.5V15.75H105.5V16.25Z" fill="black" fill-opacity="0.25"/>
<rect x="110" y="23" width="30" height="2.49805" fill="black" fill-opacity="0.25"/>
<path d="M120.655 19V18.496C120.655 13.312 126.937 13.672 126.937 10.738C126.937 9.532 126.217 8.812 124.921 8.812C123.499 8.812 122.797 9.55 122.581 10.774H120.619C120.925 8.56 122.455 7.192 124.939 7.192C127.549 7.192 128.881 8.74 128.881 10.72C128.881 14.338 123.427 14.464 122.635 17.506H128.971V19H120.655Z" fill="black" fill-opacity="0.25"/>
<path d="M218 16L216.75 15.2783V16.7217L218 16ZM142 16.125H142.5V15.875H142V16.125ZM143.5 16.125H144.5V15.875H143.5V16.125ZM145.5 16.125H146.5V15.875H145.5V16.125ZM147.5 16.125H148.5V15.875H147.5V16.125ZM149.5 16.125H150.5V15.875H149.5V16.125ZM151.5 16.125H152.5V15.875H151.5V16.125ZM153.5 16.125H154.5V15.875H153.5V16.125ZM155.5 16.125H156.5V15.875H155.5V16.125ZM157.5 16.125H158.5V15.875H157.5V16.125ZM159.5 16.125H160.5V15.875H159.5V16.125ZM161.5 16.125H162.5V15.875H161.5V16.125ZM163.5 16.125H164.5V15.875H163.5V16.125ZM165.5 16.125H166.5V15.875H165.5V16.125ZM167.5 16.125H168.5V15.875H167.5V16.125ZM169.5 16.125H170.5V15.875H169.5V16.125ZM171.5 16.125H172.5V15.875H171.5V16.125ZM173.5 16.125H174.5V15.875H173.5V16.125ZM175.5 16.125H176.5V15.875H175.5V16.125ZM177.5 16.125H178.5V15.875H177.5V16.125ZM179.5 16.125H180.5V15.875H179.5V16.125ZM181.5 16.125H182.5V15.875H181.5V16.125ZM183.5 16.125H184.5V15.875H183.5V16.125ZM185.5 16.125H186.5V15.875H185.5V16.125ZM187.5 16.125H188.5V15.875H187.5V16.125ZM189.5 16.125H190.5V15.875H189.5V16.125ZM191.5 16.125H192.5V15.875H191.5V16.125ZM193.5 16.125H194.5V15.875H193.5V16.125ZM195.5 16.125H196.5V15.875H195.5V16.125ZM197.5 16.125H198.5V15.875H197.5V16.125ZM199.5 16.125H200.5V15.875H199.5V16.125ZM201.5 16.125H202.5V15.875H201.5V16.125ZM203.5 16.125H204.5V15.875H203.5V16.125ZM205.5 16.125H206.5V15.875H205.5V16.125ZM207.5 16.125H208.5V15.875H207.5V16.125ZM209.5 16.125H210.5V15.875H209.5V16.125ZM211.5 16.125H212.5V15.875H211.5V16.125ZM213.5 16.125H214.5V15.875H213.5V16.125ZM215.5 16.125H216.5V15.875H215.5V16.125ZM218 16L215.5 14.5566V17.4434L218 16ZM142 16.25H142.5V15.75H142V16.25ZM143.5 16.25H144.5V15.75H143.5V16.25ZM145.5 16.25H146.5V15.75H145.5V16.25ZM147.5 16.25H148.5V15.75H147.5V16.25ZM149.5 16.25H150.5V15.75H149.5V16.25ZM151.5 16.25H152.5V15.75H151.5V16.25ZM153.5 16.25H154.5V15.75H153.5V16.25ZM155.5 16.25H156.5V15.75H155.5V16.25ZM157.5 16.25H158.5V15.75H157.5V16.25ZM159.5 16.25H160.5V15.75H159.5V16.25ZM161.5 16.25H162.5V15.75H161.5V16.25ZM163.5 16.25H164.5V15.75H163.5V16.25ZM165.5 16.25H166.5V15.75H165.5V16.25ZM167.5 16.25H168.5V15.75H167.5V16.25ZM169.5 16.25H170.5V15.75H169.5V16.25ZM171.5 16.25H172.5V15.75H171.5V16.25ZM173.5 16.25H174.5V15.75H173.5V16.25ZM175.5 16.25H176.5V15.75H175.5V16.25ZM177.5 16.25H178.5V15.75H177.5V16.25ZM179.5 16.25H180.5V15.75H179.5V16.25ZM181.5 16.25H182.5V15.75H181.5V16.25ZM183.5 16.25H184.5V15.75H183.5V16.25ZM185.5 16.25H186.5V15.75H185.5V16.25ZM187.5 16.25H188.5V15.75H187.5V16.25ZM189.5 16.25H190.5V15.75H189.5V16.25ZM191.5 16.25H192.5V15.75H191.5V16.25ZM193.5 16.25H194.5V15.75H193.5V16.25ZM195.5 16.25H196.5V15.75H195.5V16.25ZM197.5 16.25H198.5V15.75H197.5V16.25ZM199.5 16.25H200.5V15.75H199.5V16.25ZM201.5 16.25H202.5V15.75H201.5V16.25ZM203.5 16.25H204.5V15.75H203.5V16.25ZM205.5 16.25H206.5V15.75H205.5V16.25ZM207.5 16.25H208.5V15.75H207.5V16.25ZM209.5 16.25H210.5V15.75H209.5V16.25ZM211.5 16.25H212.5V15.75H211.5V16.25ZM213.5 16.25H214.5V15.75H213.5V16.25ZM215.5 16.25H216.5V15.75H215.5V16.25Z" fill="black" fill-opacity="0.25"/>
<rect x="220" y="23" width="30" height="2.49805" fill="black" fill-opacity="0.25"/>
<path d="M239.295 15.742C239.295 17.704 237.783 19.234 234.867 19.234C232.275 19.234 230.601 17.866 230.277 15.598H232.239C232.437 16.84 233.265 17.614 234.849 17.614C236.469 17.614 237.333 16.894 237.333 15.652C237.333 14.734 236.829 13.78 234.363 13.78H233.805V12.304H234.255C236.613 12.304 237.009 11.332 237.009 10.576C237.009 9.478 236.271 8.812 234.885 8.812C233.427 8.812 232.671 9.55 232.455 10.774H230.529C230.835 8.56 232.401 7.192 234.903 7.192C237.567 7.192 238.971 8.65 238.971 10.558C238.971 11.638 238.521 12.448 237.405 12.934C238.773 13.51 239.295 14.518 239.295 15.742Z" fill="black" fill-opacity="0.25"/>
</svg>
